<?xml version="1.0" encoding="iso-8859-1"?>
<!-- Generator: Adobe Illustrator 18.0.0, SVG Export Plug-In . SVG Version: 6.00 Build 0)  -->
<!DOCTYPE svg PUBLIC "-//W3C//DTD SVG 1.1//EN" "http://www.w3.org/Graphics/SVG/1.1/DTD/svg11.dtd">
<svg version="1.1" id="Capa_1" xmlns="http://www.w3.org/2000/svg" xmlns:xlink="http://www.w3.org/1999/xlink" x="0px" y="0px"
	 viewBox="0 0 55.39 55.39" style="enable-background:new 0 0 55.39 55.39;" xml:space="preserve">
<path style="fill:#1D1D1B;" d="M54.574,15.338c-0.846-3.125-4.245-6.299-6.505-8.259c-0.463-0.401-1.184-0.372-1.514,0.195
	c-1.566,2.689-3.104,5.411-4.521,8.181c-0.146,0.284-0.1,0.545,0.034,0.743c-0.154,0.118-0.27,0.297-0.29,0.547
	c-0.031,0.382-0.053,0.765-0.082,1.147c-0.564-0.444-1.47-0.497-2.18-0.517c-1.164-0.033-2.283,0.3-3.297,0.854
	c-0.031,0.017-0.048,0.043-0.074,0.064c-0.024-0.352-0.035-0.707-0.063-1.057c-0.016-0.208-0.114-0.385-0.253-0.519
	c-1.813-2.788-3.938-5.403-5.921-8.072c-0.354-0.476-1.052-0.691-1.517-0.195c-2.23,2.378-4.511,4.801-6.426,7.445
	c-0.067,0.092-0.09,0.182-0.097,0.268c-0.157,0.124-0.272,0.316-0.291,0.587c-0.046,0.663-0.074,1.335-0.109,2.003
	c-0.558-0.716-1.491-0.746-2.362-0.803c-1.085-0.071-2.173,0.048-3.227,0.3c-0.617,0.147-0.488,1.125,0.15,1.108
	c0.969-0.026,1.932-0.012,2.896,0.091c0.805,0.085,1.653,0.403,2.396,0.008c0.044-0.023,0.08-0.061,0.114-0.101
	c-0.066,1.382-0.101,2.778-0.124,4.177c-1.962-0.116-3.92-0.008-5.886-0.139c0.05-2.715,0.029-5.429-0.18-8.125
	c0.26-0.33,0.342-0.819-0.001-1.236c-1.869-2.275-4.733-4.089-7.58-4.829c-0.103-0.027-0.199-0.02-0.289,0.001
	C7.208,9.07,6.973,9.007,6.765,9.04c-0.812,0.127-1.181,0.712-1.722,1.288c-0.619,0.66-1.228,1.328-1.833,2.001
	c-0.71,0.79-2.54,2.17-2.183,3.365c0.02,0.068,0.065,0.125,0.119,0.172c-1.506,4.224-0.859,9.58-0.938,13.941
	C0.107,35.444-0.334,41.355,0.493,46.94c0.085,0.576,0.635,0.613,1.021,0.365c0.004,0,0.007,0.003,0.011,0.003
	c3.572,0.395,7.653,1.048,11.219,0.481c0.373-0.059,0.561-0.36,0.596-0.688c0.316,0.378,1.002,0.442,1.104-0.176
	c0.288-1.749,0.444-3.531,0.535-5.324c2.346-0.171,4.679-0.14,7.041-0.08c0.006,0,0.009-0.002,0.015-0.002
	c0.122,1.348,0.247,2.696,0.394,4.021c-0.05,0.025-0.091,0.067-0.108,0.134c-0.441,1.724,1.461,2.002,2.731,2.091
	c1.698,0.119,3.429,0.051,5.13,0.032c1.51-0.017,2.843,0.119,4.214-0.52c0.409-0.19,0.429-0.605,0.254-0.93
	c0.453,0.299,1.192,0.112,1.204-0.604c0.022-1.271,0.057-2.552,0.096-3.838c1.68-0.059,3.394-0.104,5.054-0.349
	c-0.01,1.73-0.02,3.458-0.034,5.184c-0.005,0.593,0.465,0.865,0.92,0.834c0.123,0.206,0.328,0.371,0.635,0.403
	c1.961,0.207,3.944,0.316,5.914,0.413c1.712,0.085,3.618,0.451,5.24-0.146c0.351-0.129,0.572-0.593,0.419-0.92
	c0.217-0.085,0.396-0.278,0.417-0.584c0.726-10.132,0.8-20.343,0.875-30.499C55.394,15.681,55.003,15.388,54.574,15.338z
	 M13.387,29.812c-0.169,5.462-0.766,11.155-0.235,16.596c-0.101-0.127-0.233-0.229-0.408-0.267
	c-3.374-0.734-7.31-0.361-10.778-0.157c0.546-5.31,0.144-10.842,0.247-16.177c0.084-4.377,1.095-9.689-0.056-13.997
	c0.969-0.446,1.876-1.761,2.478-2.376c0.809-0.826,2.148-1.821,2.699-2.959c2.566,1.281,4.604,2.783,6.599,4.869
	c0.075,0.078,0.154,0.12,0.233,0.165C13.561,20.243,13.535,25.048,13.387,29.812z M15.176,31.694
	c0.067-2.457,0.17-4.928,0.229-7.399c1.894,0.562,3.94,0.928,5.891,0.683c-0.021,3.352,0.083,6.732,0.27,10.091
	c-0.97-0.241-2.029-0.112-3.03-0.037c-1.147,0.086-2.293,0.246-3.416,0.5C15.132,34.245,15.142,32.962,15.176,31.694z M15.03,40.384
	c0.046-1.294,0.06-2.591,0.074-3.885c1.142-0.125,2.279-0.229,3.432-0.219c1.023,0.009,2.092,0.248,3.102,0.119
	c0.076,1.212,0.163,2.42,0.262,3.622C19.601,39.742,17.29,39.926,15.03,40.384z M34.303,45.744c0.007,0.111,0.037,0.207,0.076,0.294
	c-0.05-0.035-0.102-0.068-0.158-0.09c-0.805-0.318-8.866-0.217-10.958-0.209c0.734-9.446,0.851-19.56-0.124-28.99
	c-0.013-0.124-0.046-0.233-0.094-0.326c2.109-1.765,4.047-3.777,5.937-5.786c1.766,2.423,3.495,4.899,5.423,7.186
	C33.109,26.859,33.712,36.691,34.303,45.744z M36.698,19.367c0.926-0.358,1.879-0.498,2.868-0.361
	c0.738,0.103,1.336,0.507,2.027,0.331c-0.083,1.235-0.151,2.471-0.211,3.708c-0.6-0.071-1.214,0.074-1.826,0.073
	c-0.824-0.002-1.612-0.168-2.419-0.314c-0.584-0.106-1.051,0.73-0.435,1.031c1.14,0.558,3.241,1.124,4.618,0.671
	c-0.156,3.684-0.225,7.375-0.266,11.066c-1.425-0.455-3.485-0.048-4.901,0.486c0.198-5.605,0.36-11.257,0.052-16.757
	C36.337,19.399,36.505,19.442,36.698,19.367z M35.991,40.641c0.04-1.182,0.082-2.369,0.125-3.557
	c0.846-0.145,1.685-0.279,2.547-0.284c0.792-0.004,1.573,0.232,2.354,0.18c0.009-0.001,0.015-0.005,0.024-0.006
	c-0.009,0.962-0.017,1.924-0.023,2.885C39.34,39.971,37.649,40.318,35.991,40.641z M53.196,46.742
	c0.001,0.035,0.015,0.06,0.021,0.092c-1.386-0.438-2.886-0.316-4.356-0.367c-2.037-0.071-4.088-0.125-6.127-0.081
	c0.361-9.855,0.882-19.784,0.509-29.641c-0.006-0.152-0.053-0.27-0.115-0.373c0.061-0.05,0.121-0.101,0.172-0.177
	c1.503-2.263,2.921-4.592,4.309-6.93c1.076,1.014,2.077,2.096,2.971,3.284c1.013,1.346,1.677,3.041,2.876,4.21
	C53.153,26.737,52.858,36.766,53.196,46.742z"/>
<g>
</g>
<g>
</g>
<g>
</g>
<g>
</g>
<g>
</g>
<g>
</g>
<g>
</g>
<g>
</g>
<g>
</g>
<g>
</g>
<g>
</g>
<g>
</g>
<g>
</g>
<g>
</g>
<g>
</g>
</svg>
