<?xml version="1.0" encoding="iso-8859-1"?>
<!-- Generator: Adobe Illustrator 19.0.0, SVG Export Plug-In . SVG Version: 6.00 Build 0)  -->
<svg version="1.1" id="Layer_1" xmlns="http://www.w3.org/2000/svg" xmlns:xlink="http://www.w3.org/1999/xlink" x="0px" y="0px"
	 viewBox="0 0 511.999 511.999" style="enable-background:new 0 0 511.999 511.999;" xml:space="preserve">
<g>
	<g>
		<path d="M255.998,217.518c-5.966,0-10.802,4.836-10.802,10.802v2.477c0,5.966,4.836,10.802,10.802,10.802
			c5.965,0,10.802-4.836,10.802-10.802v-2.477C266.799,222.354,261.962,217.518,255.998,217.518z"/>
	</g>
</g>
<g>
	<g>
		<path d="M474.321,182.713c-4.726-39.093-38.084-69.491-78.431-69.491H290.659c-13.878,0-26.316,6.257-34.663,16.093
			c-8.347-9.834-20.785-16.093-34.663-16.093H116.102c-40.341,0-73.697,30.392-78.429,69.478
			c-20.453,4.726-36.078,22.469-37.557,43.942c-0.822,11.908,2.711,23.646,9.948,33.049c17.892,23.26,27.745,53.256,27.745,84.463
			v43.823c0,5.966,4.836,10.802,10.802,10.802H86.43c5.966,0,10.802-4.836,10.802-10.802V367.55H414.76v20.426
			c0,5.966,4.837,10.802,10.802,10.802h37.818c5.965,0,10.802-4.836,10.802-10.802v-43.823c0-31.122,9.877-61.143,27.82-84.542
			c6.54-8.556,9.997-18.772,9.997-29.546C512,207.192,495.824,187.73,474.321,182.713z M75.629,282.016c0,0.003,0,0.008,0,0.011
			v1.064v24.552v49.105v20.426H59.416v-33.021c0-35.945-11.444-70.619-32.227-97.636c-4.017-5.219-5.977-11.749-5.518-18.388
			c0.919-13.338,11.669-24.088,24.983-25.005c0.468-0.031,0.934-0.056,1.429-0.065c7.333-0.129,14.232,2.608,19.452,7.731
			c5.219,5.122,8.094,11.968,8.094,19.276V282.016z M414.761,345.946H97.233v-27.501h158.765h158.764V345.946z M97.233,296.841
			v-13.751c0-0.217,0.008-0.428,0.014-0.637c0.334-7.357,6.359-13.113,13.737-13.113h120.462c7.583,0,13.751,6.168,13.751,13.751
			v13.751H97.233z M414.761,296.841H266.799v-13.751c0-7.583,6.168-13.751,13.75-13.751h120.463c7.583,0,13.75,6.168,13.75,13.751
			V296.841z M414.761,230.81v19.71c-4.229-1.792-8.876-2.784-13.75-2.784H280.549c-9.531,0-18.187,3.798-24.551,9.952
			c-6.364-6.154-15.021-9.952-24.552-9.952H110.983c-4.878,0-9.523,0.985-13.751,2.762v-20.434c0-13.156-5.173-25.477-14.566-34.695
			c-6.517-6.395-14.511-10.728-23.171-12.702c4.575-27.116,28.209-47.842,56.607-47.842h105.231
			c13.157,0,23.861,10.705,23.861,23.861v37.768c0,5.966,4.836,10.802,10.802,10.802c5.965,0,10.802-4.836,10.802-10.802v-37.768
			c0-13.158,10.703-23.861,23.861-23.861h105.231c28.407,0,52.046,20.738,56.612,47.875c-8.483,1.99-16.342,6.31-22.809,12.653
			C420.204,204.661,414.761,217.584,414.761,230.81z M484.849,246.478c-20.81,27.138-32.269,61.826-32.269,97.675v33.021h-16.215
			v-20.426v-49.105v-24.552V230.81c0-7.461,3.083-14.763,8.457-20.034c5.215-5.115,12.001-7.851,19.089-7.718
			c14.605,0.276,26.486,12.392,26.486,27.007C490.397,236.054,488.474,241.735,484.849,246.478z"/>
	</g>
</g>
<g>
</g>
<g>
</g>
<g>
</g>
<g>
</g>
<g>
</g>
<g>
</g>
<g>
</g>
<g>
</g>
<g>
</g>
<g>
</g>
<g>
</g>
<g>
</g>
<g>
</g>
<g>
</g>
<g>
</g>
</svg>
