<?xml version="1.0" encoding="iso-8859-1"?>
<!-- Generator: Adobe Illustrator 17.1.0, SVG Export Plug-In . SVG Version: 6.00 Build 0)  -->
<!DOCTYPE svg PUBLIC "-//W3C//DTD SVG 1.1//EN" "http://www.w3.org/Graphics/SVG/1.1/DTD/svg11.dtd">
<svg version="1.1" id="Capa_1" xmlns="http://www.w3.org/2000/svg" xmlns:xlink="http://www.w3.org/1999/xlink" x="0px" y="0px"
	 viewBox="0 0 221.07 221.07" style="enable-background:new 0 0 221.07 221.07;" xml:space="preserve">
<path d="M49.132,173.074c-6.49,0-12.97-2.5-17.943-7.475l-0.294-0.293c-6.666-6.665-17.278-6.844-24.162-0.407
	c-1.614,1.511-4.145,1.423-5.654-0.189c-1.509-1.613-1.424-4.145,0.189-5.653c10.054-9.4,25.551-9.141,35.281,0.59l0.294,0.293
	c6.666,6.666,17.277,6.845,24.161,0.407l1.382-1.292c10.052-9.4,25.55-9.14,35.279,0.592l0.294,0.293
	c6.667,6.666,17.278,6.844,24.162,0.407l1.38-1.291c10.052-9.399,25.55-9.141,35.281,0.59l0.298,0.298
	c6.661,6.662,17.274,6.84,24.157,0.402l1.38-1.291c10.054-9.4,25.55-9.141,35.281,0.59c1.563,1.562,1.563,4.095,0,5.657
	c-1.561,1.563-4.094,1.562-5.656,0c-6.665-6.664-17.277-6.841-24.16-0.405l-1.38,1.291c-10.054,9.4-25.55,9.141-35.281-0.59
	l-0.298-0.298c-6.661-6.662-17.274-6.84-24.157-0.402l-1.38,1.291c-10.054,9.4-25.55,9.141-35.281-0.59l-0.294-0.293
	c-6.666-6.666-17.277-6.844-24.161-0.407l-1.382,1.292C61.555,170.786,55.338,173.073,49.132,173.074z M49.131,135.93
	c-6.489,0-12.969-2.499-17.942-7.474l-0.294-0.293c-6.666-6.666-17.278-6.844-24.162-0.406c-1.614,1.509-4.145,1.423-5.654-0.19
	c-1.509-1.613-1.424-4.145,0.189-5.653c10.054-9.4,25.552-9.14,35.281,0.59l0.294,0.293c4.778,4.779,11.586,6.225,17.589,4.288
	V67.919c0-6.574-5.348-11.922-11.922-11.922h-0.322c-6.574,0-11.922,5.348-11.922,11.922v2.792c0,2.209-1.791,4-4,4s-4-1.791-4-4
	v-2.792c0-10.985,8.937-19.922,19.922-19.922h0.322c10.985,0,19.922,8.937,19.922,19.922v31.105h43.32V67.919
	c0-6.574-5.348-11.922-11.922-11.922h-0.322c-6.573,0-11.922,5.348-11.922,11.922v2.792c0,2.209-1.791,4-4,4s-4-1.791-4-4v-2.792
	c0-10.985,8.937-19.922,19.922-19.922h0.322c10.985,0,19.922,8.937,19.922,19.922v59.639c3.03-0.627,5.933-2.076,8.369-4.355
	l1.38-1.29c10.052-9.401,25.551-9.141,35.281,0.59l0.298,0.298c6.661,6.661,17.274,6.84,24.157,0.402l1.38-1.29
	c10.054-9.401,25.55-9.14,35.281,0.59c1.563,1.563,1.563,4.095,0,5.657c-1.561,1.562-4.096,1.562-5.656,0
	c-6.665-6.665-17.278-6.842-24.16-0.404l-1.38,1.29c-10.055,9.4-25.552,9.14-35.281-0.59l-0.298-0.298
	c-6.661-6.662-17.274-6.84-24.157-0.402l-1.38,1.291c-10.056,9.4-25.552,9.14-35.281-0.59l-0.294-0.293
	c-6.666-6.666-17.277-6.845-24.161-0.407l-1.382,1.292C61.554,133.643,55.338,135.93,49.131,135.93z M79.723,115.03
	c6.489,0,12.969,2.499,17.942,7.474l0.294,0.293c2.247,2.247,4.943,3.757,7.793,4.524v-20.297h-43.32v14.845
	C67.338,117.304,73.535,115.03,79.723,115.03z"/>
<g>
</g>
<g>
</g>
<g>
</g>
<g>
</g>
<g>
</g>
<g>
</g>
<g>
</g>
<g>
</g>
<g>
</g>
<g>
</g>
<g>
</g>
<g>
</g>
<g>
</g>
<g>
</g>
<g>
</g>
</svg>
