<?xml version="1.0" encoding="iso-8859-1"?>
<!-- Generator: Adobe Illustrator 19.0.0, SVG Export Plug-In . SVG Version: 6.00 Build 0)  -->
<svg version="1.1" id="Layer_1" xmlns="http://www.w3.org/2000/svg" xmlns:xlink="http://www.w3.org/1999/xlink" x="0px" y="0px"
	 viewBox="0 0 503.607 503.607" style="enable-background:new 0 0 503.607 503.607;" xml:space="preserve">
<g>
	<g>
		<g>
			<rect x="201.439" y="50.361" width="100.721" height="16.787"/>
			<path d="M117.508,125.902v377.705H243.41V117.508H125.902C121.268,117.508,117.508,121.268,117.508,125.902z"/>
			<rect x="436.456" y="276.984" width="16.787" height="16.787"/>
			<path d="M377.705,117.508H260.197v386.098h125.902V125.902C386.098,121.268,382.338,117.508,377.705,117.508z"/>
			<rect x="436.456" y="310.557" width="16.787" height="16.787"/>
			<path d="M478.426,0H25.18C11.298,0,0,11.298,0,25.18v453.246c0,13.883,11.298,25.18,25.18,25.18h75.541V125.902
				c0-13.883,11.298-25.18,25.18-25.18h125.902h125.902c13.883,0,25.18,11.298,25.18,25.18v377.705h75.541
				c13.883,0,25.18-11.298,25.18-25.18V25.18C503.607,11.298,492.309,0,478.426,0z M318.951,75.541c0,4.642-3.752,8.393-8.393,8.393
				H193.049c-4.642,0-8.393-3.752-8.393-8.393V41.967c0-4.642,3.752-8.393,8.393-8.393h117.508c4.642,0,8.393,3.752,8.393,8.393
				V75.541z M470.033,302.164v33.574c0,4.642-3.752,8.393-8.393,8.393h-33.574c-4.642,0-8.393-3.752-8.393-8.393v-33.574V268.59
				c0-4.642,3.752-8.393,8.393-8.393h33.574c4.642,0,8.393,3.752,8.393,8.393V302.164z"/>
		</g>
	</g>
</g>
<g>
</g>
<g>
</g>
<g>
</g>
<g>
</g>
<g>
</g>
<g>
</g>
<g>
</g>
<g>
</g>
<g>
</g>
<g>
</g>
<g>
</g>
<g>
</g>
<g>
</g>
<g>
</g>
<g>
</g>
</svg>
