<?xml version="1.0" encoding="iso-8859-1"?>
<!-- Generator: Adobe Illustrator 16.0.0, SVG Export Plug-In . SVG Version: 6.00 Build 0)  -->
<!DOCTYPE svg PUBLIC "-//W3C//DTD SVG 1.1//EN" "http://www.w3.org/Graphics/SVG/1.1/DTD/svg11.dtd">
<svg version="1.1" id="Capa_1" xmlns="http://www.w3.org/2000/svg" xmlns:xlink="http://www.w3.org/1999/xlink" x="0px" y="0px"
	 width="46.394px" height="46.393px" viewBox="0 0 46.394 46.393" style="enable-background:new 0 0 46.394 46.393;"
	 xml:space="preserve">
<g>
	<path d="M45.494,23.811c0.521,0,0.899-0.389,0.899-0.91v-3.156c0-0.523-0.378-0.985-0.899-0.985h-4.459v-8.057
		c0-0.678-0.25-1.33-0.709-1.828L38.301,6.68c-0.509-0.551-1.227-0.865-1.977-0.865c-0.752,0-1.469,0.314-1.979,0.865l-2.019,2.195
		c-0.459,0.498-0.707,1.15-0.707,1.828v8.057h-3.676v-8.057c0-0.678-0.259-1.33-0.719-1.828L25.195,6.68
		c-0.512-0.551-1.229-0.865-1.979-0.865s-1.469,0.314-1.979,0.865l-2.011,2.195c-0.46,0.498-0.7,1.15-0.7,1.828v8.057h-3.675v-8.057
		c0-0.678-0.267-1.33-0.727-1.828L12.085,6.68c-0.51-0.551-1.228-0.865-1.979-0.865S8.637,6.129,8.127,6.68l-2,2.194
		c-0.459,0.498-0.691,1.15-0.691,1.828v8.057H0.938C0.416,18.759,0,19.221,0,19.744V22.9c0,0.522,0.416,0.91,0.938,0.91h4.498v4.058
		H0.938C0.416,27.868,0,28.308,0,28.831v3.157c0,0.522,0.416,0.933,0.938,0.933h4.498v5.018c0,1.445,1.124,2.641,2.568,2.641h4.209
		c1.444,0,2.639-1.195,2.639-2.641V32.92h3.675v5.018c0,1.445,1.141,2.641,2.585,2.641h4.208c1.444,0,2.623-1.195,2.623-2.641V32.92
		h3.676v5.018c0,1.445,1.156,2.641,2.602,2.641h4.208c1.444,0,2.606-1.195,2.606-2.641V32.92h4.459c0.521,0,0.899-0.41,0.899-0.933
		v-3.157c0-0.521-0.378-0.963-0.899-0.963h-4.459V23.81L45.494,23.811L45.494,23.811z M14.852,27.868V23.81h3.675v4.058H14.852z
		 M31.619,27.868h-3.676V23.81h3.676V27.868z"/>
</g>
<g>
</g>
<g>
</g>
<g>
</g>
<g>
</g>
<g>
</g>
<g>
</g>
<g>
</g>
<g>
</g>
<g>
</g>
<g>
</g>
<g>
</g>
<g>
</g>
<g>
</g>
<g>
</g>
<g>
</g>
</svg>
