<?xml version="1.0" encoding="iso-8859-1"?>
<!-- Generator: Adobe Illustrator 18.0.0, SVG Export Plug-In . SVG Version: 6.00 Build 0)  -->
<!DOCTYPE svg PUBLIC "-//W3C//DTD SVG 1.1//EN" "http://www.w3.org/Graphics/SVG/1.1/DTD/svg11.dtd">
<svg version="1.1" id="Capa_1" xmlns="http://www.w3.org/2000/svg" xmlns:xlink="http://www.w3.org/1999/xlink" x="0px" y="0px"
	 viewBox="0 0 484 484" style="enable-background:new 0 0 484 484;" xml:space="preserve">
<g>
	<path d="M478,151.859H335.48v-5h11.486c2.665,0,5.011-1.758,5.759-4.316c0.748-2.558-0.281-5.303-2.526-6.739L245.889,69.086
		c-1.973-1.261-4.494-1.261-6.467,0l-104.311,66.718c-2.245,1.436-3.274,4.181-2.526,6.739c0.748,2.558,3.094,4.316,5.759,4.316
		h11.496v5H6c-3.313,0-6,2.687-6,6v252c0,3.313,2.687,6,6,6h472c3.313,0,6-2.687,6-6v-252C484,154.546,481.313,151.859,478,151.859z
		 M344,403.859H140v-10h204V403.859z M311.5,348.859h-12v-172h12V348.859z M264.5,381.859v-27c0-2.795-1.914-5.136-4.5-5.803
		v-25.197h27.5v25.197c-2.586,0.667-4.5,3.009-4.5,5.803v27H264.5z M196.5,201.859H224v25h-27.5V201.859z M196.5,238.859H224v16
		h-27.5V238.859z M196.5,266.859H224v4h-27.5V266.859z M196.5,282.859H224v29h-27.5V282.859z M196.5,349.056v-25.197H224v25.197
		c-2.586,0.667-4.5,3.009-4.5,5.803v27H201v-27C201,352.065,199.086,349.723,196.5,349.056z M231.5,360.859h21v21h-21V360.859z
		 M260,201.859h27.5v25H260V201.859z M260,238.859h27.5v16H260V238.859z M260,266.859h27.5v4H260V266.859z M260,282.859h27.5v29H260
		V282.859z M287.5,189.859H260v-13h27.5V189.859z M248,348.859h-12v-172h12V348.859z M224,189.859h-27.5v-13H224V189.859z
		 M184.5,348.859h-12v-172h12V348.859z M160.5,349.056c-2.586,0.667-4.5,3.009-4.5,5.803v6H12v-169h148.5V349.056z M168,360.859h21
		v21h-21V360.859z M295,381.859v-21h21v21H295z M323.5,349.056V191.859H472v169H328v-6C328,352.065,326.086,349.723,323.5,349.056z
		 M472,163.859v16H323.5v-3h5.98c3.313,0,6-2.687,6-6v-7H472z M242.655,81.264l83.795,53.596H158.86L242.655,81.264z
		 M323.48,146.859v18H311.5h-12h-12H260h-12h-12h-12h-27.5h-12h-12h-10.66v-18H323.48z M149.84,163.859v7c0,3.313,2.687,6,6,6h4.66
		v3H12v-16H149.84z M12,372.859h144v9h-22c-3.313,0-6,2.687-6,6v16H12V372.859z M356,403.859v-16c0-3.313-2.687-6-6-6h-22v-9h144v31
		H356z"/>
	<path d="M44.155,258.859h33c3.313,0,6-2.687,6-6v-48c0-3.313-2.687-6-6-6h-33c-3.313,0-6,2.687-6,6v48
		C38.155,256.173,40.842,258.859,44.155,258.859z M50.155,246.859v-20h21v20H50.155z M71.155,210.859v4h-21v-4H71.155z"/>
	<path d="M104.155,258.859h33c3.313,0,6-2.687,6-6v-48c0-3.313-2.687-6-6-6h-33c-3.313,0-6,2.687-6,6v48
		C98.155,256.173,100.842,258.859,104.155,258.859z M110.155,246.859v-20h21v20H110.155z M131.155,210.859v4h-21v-4H131.155z"/>
	<path d="M44.155,349.859h33c3.313,0,6-2.687,6-6v-48c0-3.313-2.687-6-6-6h-33c-3.313,0-6,2.687-6,6v48
		C38.155,347.173,40.842,349.859,44.155,349.859z M50.155,337.859v-20h21v20H50.155z M71.155,301.859v4h-21v-4H71.155z"/>
	<path d="M104.155,349.859h33c3.313,0,6-2.687,6-6v-48c0-3.313-2.687-6-6-6h-33c-3.313,0-6,2.687-6,6v48
		C98.155,347.173,100.842,349.859,104.155,349.859z M110.155,337.859v-20h21v20H110.155z M131.155,301.859v4h-21v-4H131.155z"/>
	<path d="M348.155,258.859h33c3.313,0,6-2.687,6-6v-48c0-3.313-2.687-6-6-6h-33c-3.313,0-6,2.687-6,6v48
		C342.155,256.173,344.842,258.859,348.155,258.859z M354.155,246.859v-20h21v20H354.155z M375.155,210.859v4h-21v-4H375.155z"/>
	<path d="M408.155,258.859h33c3.313,0,6-2.687,6-6v-48c0-3.313-2.687-6-6-6h-33c-3.313,0-6,2.687-6,6v48
		C402.155,256.173,404.842,258.859,408.155,258.859z M414.155,246.859v-20h21v20H414.155z M435.155,210.859v4h-21v-4H435.155z"/>
	<path d="M348.155,349.859h33c3.313,0,6-2.687,6-6v-48c0-3.313-2.687-6-6-6h-33c-3.313,0-6,2.687-6,6v48
		C342.155,347.173,344.842,349.859,348.155,349.859z M354.155,337.859v-20h21v20H354.155z M375.155,301.859v4h-21v-4H375.155z"/>
	<path d="M408.155,349.859h33c3.313,0,6-2.687,6-6v-48c0-3.313-2.687-6-6-6h-33c-3.313,0-6,2.687-6,6v48
		C402.155,347.173,404.842,349.859,408.155,349.859z M414.155,337.859v-20h21v20H414.155z M435.155,301.859v4h-21v-4H435.155z"/>
</g>
<g>
</g>
<g>
</g>
<g>
</g>
<g>
</g>
<g>
</g>
<g>
</g>
<g>
</g>
<g>
</g>
<g>
</g>
<g>
</g>
<g>
</g>
<g>
</g>
<g>
</g>
<g>
</g>
<g>
</g>
</svg>
